<svg xmlns="http://www.w3.org/2000/svg" width="16" height="16" viewBox="0 0 16 16">
  <g id="gb_favicon" data-name="gb favicon" transform="translate(-201 -563)">
    <rect id="Rectangle_1874" data-name="Rectangle 1874" width="16" height="16" rx="1" transform="translate(201 563)" fill="#0fb768"/>
    <g id="gb_Logo" data-name="gb Logo" transform="translate(204.058 565)">
      <path id="S" d="M.8,0C.447,0,.209.335.1.8a4.108,4.108,0,0,0-.094.748C0,1.614,0,1.678,0,1.741s0,.126,0,.187c0,.122,0,.24.006.35a5.182,5.182,0,0,0,.45,2.31A4.088,4.088,0,0,0,1.827,5.97,23.124,23.124,0,0,0,4.7,7.547c.734.365,1.345.677,1.821.91s.847.412,1.12.546.469.233.6.312.229.134.3.173a2.19,2.19,0,0,1,.838,1.6,3.866,3.866,0,0,1-.034.7c-.013.178.008.216.2.22.187-.015.394-.077.508-.551a5.544,5.544,0,0,0,.125-1c.011-.214.017-.453.017-.71v-.2q0-.1,0-.2c0-.139-.007-.285-.013-.434A3.841,3.841,0,0,0,9.5,6.55,4.642,4.642,0,0,0,8.4,5.679a26.9,26.9,0,0,0-3-1.512C4.421,3.729,3.58,3.323,2.936,3a15.38,15.38,0,0,1-1.409-.767A1.545,1.545,0,0,1,1,.723,3.339,3.339,0,0,0,1.048.188.2.2,0,0,0,.985.046.182.182,0,0,0,.912.01.333.333,0,0,0,.863,0L.834,0Z" transform="translate(0)" fill="#fff"/>
    </g>
  </g>
</svg>
